<mxfile host="app.diagrams.net" modified="2024-01-11T23:16:08.975Z" agent="Mozilla/5.0 (Windows NT 10.0; Win64; x64) AppleWebKit/537.36 (KHTML, like Gecko) Chrome/120.0.0.0 Safari/537.36" version="22.1.17" etag="J2Tq60B6SWrbxl6_UL0U" type="github">
  <diagram name="Page-1" id="duf5YGF6keU-Iw4HFK_6">
    <mxGraphModel>
      <root>
        <mxCell id="0" />
        <mxCell id="1" parent="0" />
        <mxCell id="2" value="User" style="shape=umlLifeline;perimeter=lifelinePerimeter;whiteSpace=wrap;container=1;dropTarget=0;collapsible=0;recursiveResize=0;outlineConnect=0;portConstraint=eastwest;newEdgeStyle={&quot;edgeStyle&quot;:&quot;elbowEdgeStyle&quot;,&quot;elbow&quot;:&quot;vertical&quot;,&quot;curved&quot;:0,&quot;rounded&quot;:0};size=65;" vertex="1" parent="1">
          <mxGeometry width="150" height="916" as="geometry" />
        </mxCell>
        <mxCell id="3" value="System" style="shape=umlLifeline;perimeter=lifelinePerimeter;whiteSpace=wrap;container=1;dropTarget=0;collapsible=0;recursiveResize=0;outlineConnect=0;portConstraint=eastwest;newEdgeStyle={&quot;edgeStyle&quot;:&quot;elbowEdgeStyle&quot;,&quot;elbow&quot;:&quot;vertical&quot;,&quot;curved&quot;:0,&quot;rounded&quot;:0};size=65;" vertex="1" parent="1">
          <mxGeometry x="331" width="150" height="916" as="geometry" />
        </mxCell>
        <mxCell id="4" value="loop" style="shape=umlFrame;dashed=1;pointerEvents=0;dropTarget=0;strokeColor=#B3B3B3;height=20;width=40" vertex="1" parent="1">
          <mxGeometry x="65" y="209" width="458" height="344" as="geometry" />
        </mxCell>
        <mxCell id="5" value="[For each employee]" style="text;strokeColor=none;fillColor=none;align=center;verticalAlign=middle;whiteSpace=wrap;" vertex="1" parent="4">
          <mxGeometry x="40" width="418" height="20" as="geometry" />
        </mxCell>
        <mxCell id="6" value="Request to track attendance" style="verticalAlign=bottom;endArrow=block;edgeStyle=elbowEdgeStyle;elbow=vertical;curved=0;rounded=0;" edge="1" parent="1" source="2" target="3">
          <mxGeometry relative="1" as="geometry">
            <Array as="points">
              <mxPoint x="251" y="107" />
            </Array>
          </mxGeometry>
        </mxCell>
        <mxCell id="7" value="Retrieve employee list" style="curved=1;" edge="1" parent="1" source="3" target="3">
          <mxGeometry relative="1" as="geometry">
            <Array as="points">
              <mxPoint x="456" y="159" />
              <mxPoint x="456" y="189" />
            </Array>
          </mxGeometry>
        </mxCell>
        <mxCell id="8" value="Retrieve employee attendance" style="curved=1;" edge="1" parent="1" source="3" target="3">
          <mxGeometry relative="1" as="geometry">
            <Array as="points">
              <mxPoint x="456" y="287" />
              <mxPoint x="456" y="317" />
            </Array>
          </mxGeometry>
        </mxCell>
        <mxCell id="9" value="Calculate total attendance" style="curved=1;" edge="1" parent="1" source="3" target="3">
          <mxGeometry relative="1" as="geometry">
            <Array as="points">
              <mxPoint x="456" y="369" />
              <mxPoint x="456" y="399" />
            </Array>
          </mxGeometry>
        </mxCell>
        <mxCell id="10" value="Generate attendance report" style="curved=1;" edge="1" parent="1" source="3" target="3">
          <mxGeometry relative="1" as="geometry">
            <Array as="points">
              <mxPoint x="456" y="451" />
              <mxPoint x="456" y="481" />
            </Array>
          </mxGeometry>
        </mxCell>
        <mxCell id="11" value="Return attendance report" style="verticalAlign=bottom;endArrow=block;edgeStyle=elbowEdgeStyle;elbow=vertical;curved=0;rounded=0;" edge="1" parent="1" source="3" target="2">
          <mxGeometry relative="1" as="geometry">
            <Array as="points">
              <mxPoint x="251" y="533" />
            </Array>
          </mxGeometry>
        </mxCell>
        <mxCell id="12" value="Request to generate summary report" style="verticalAlign=bottom;endArrow=block;edgeStyle=elbowEdgeStyle;elbow=vertical;curved=0;rounded=0;" edge="1" parent="1" source="2" target="3">
          <mxGeometry relative="1" as="geometry">
            <Array as="points">
              <mxPoint x="251" y="595" />
            </Array>
          </mxGeometry>
        </mxCell>
        <mxCell id="13" value="Calculate summary statistics" style="curved=1;" edge="1" parent="1" source="3" target="3">
          <mxGeometry relative="1" as="geometry">
            <Array as="points">
              <mxPoint x="456" y="647" />
              <mxPoint x="456" y="677" />
            </Array>
          </mxGeometry>
        </mxCell>
        <mxCell id="14" value="Generate summary report" style="curved=1;" edge="1" parent="1" source="3" target="3">
          <mxGeometry relative="1" as="geometry">
            <Array as="points">
              <mxPoint x="456" y="729" />
              <mxPoint x="456" y="759" />
            </Array>
          </mxGeometry>
        </mxCell>
        <mxCell id="15" value="Return summary report" style="verticalAlign=bottom;endArrow=block;edgeStyle=elbowEdgeStyle;elbow=vertical;curved=0;rounded=0;" edge="1" parent="1" source="3" target="2">
          <mxGeometry relative="1" as="geometry">
            <Array as="points">
              <mxPoint x="251" y="811" />
            </Array>
          </mxGeometry>
        </mxCell>
      </root>
    </mxGraphModel>
  </diagram>
</mxfile>
